<svg width="36" height="36" viewBox="0 0 36 36" fill="none" xmlns="http://www.w3.org/2000/svg">
<path d="M17.5244 0.00299909C27.4136 -0.176203 35.5137 7.69822 35.6991 17.4811C35.8881 27.3979 28.076 35.4947 18.23 35.6976C15.8772 35.7526 13.5369 35.3408 11.3441 34.486C9.15143 33.6312 7.14983 32.3503 5.45498 30.7175C3.76012 29.0846 2.40561 27.1321 1.4697 24.9727C0.533785 22.8133 0.0350215 20.4898 0.00222427 18.1365C-0.15187 8.21142 7.72019 0.198936 17.5244 0.00299909ZM19.8023 15.0783C19.8023 14.4396 19.8267 13.7995 19.7953 13.1628C19.764 12.5262 19.4592 12.1741 18.8254 12.1448C17.6317 12.0897 16.4352 12.089 15.2401 12.0911C15.0528 12.0871 14.8667 12.123 14.6943 12.1965C14.5219 12.2699 14.3672 12.3793 14.2403 12.5171C13.9704 12.8121 14.0206 12.9878 14.4062 13.1008C15.017 13.2793 15.3029 13.5965 15.3336 14.2081C15.3726 14.9855 15.4033 15.7644 15.3887 16.5419C15.3796 16.9665 15.2882 17.3939 15.1927 17.8109C15.0895 18.2579 14.8197 18.3409 14.4522 18.0536C14.2704 17.9112 14.1065 17.7473 13.9641 17.5655C12.9881 16.3185 12.2 14.9353 11.6248 13.4599C11.3947 12.8672 10.9855 12.5771 10.3516 12.5764C9.35247 12.5764 8.3533 12.559 7.35343 12.5597C6.76564 12.5597 6.53276 12.9083 6.77471 13.4564C7.98306 16.1758 9.32807 18.8213 11.157 21.1962C13.1037 23.7218 15.6048 25.0383 18.8436 24.783C19.4857 24.7328 19.7165 24.4874 19.8079 23.8571C19.8772 23.3639 19.9743 22.875 20.0986 22.3928C20.2346 21.8754 20.6564 21.7352 21.0929 22.0441C21.2902 22.1877 21.4738 22.3489 21.6417 22.5259C22.1298 23.0266 22.5997 23.5384 23.0822 24.0418C23.3195 24.2987 23.6083 24.5027 23.9296 24.6406C24.251 24.7785 24.5977 24.8472 24.9474 24.8423C25.4236 24.8423 25.8998 24.8744 26.3761 24.873C26.968 24.873 27.5614 24.88 28.152 24.8298C28.8918 24.767 29.2035 24.1583 28.8702 23.4959C28.8151 23.3937 28.7546 23.2945 28.6889 23.1988C27.9449 22.0441 26.9346 21.1286 25.9731 20.1691C25.2186 19.4168 25.1998 19.1734 25.8217 18.2934C25.8754 18.2174 25.9319 18.1435 25.987 18.0689C26.6257 17.198 27.2951 16.3466 27.8933 15.4485C28.2899 14.8511 28.6288 14.2175 28.9057 13.5561C29.1533 12.9669 28.9378 12.642 28.3026 12.6238C26.968 12.5855 25.6314 12.605 24.2961 12.6078C23.9719 12.6078 23.7516 12.7835 23.6247 13.0771C23.5554 13.237 23.4883 13.3973 23.4232 13.5582C22.8012 15.0859 22.0015 16.5063 20.8796 17.7279C20.6906 17.9371 20.5268 18.2551 20.1823 18.1463C19.8379 18.0375 19.8204 17.6722 19.8107 17.3835C19.7828 16.6102 19.8023 15.8439 19.8023 15.0783Z" fill="white"/>
</svg>
