<?xml version="1.0" encoding="utf-8"?>
<!-- Generator: Adobe Illustrator 27.2.0, SVG Export Plug-In . SVG Version: 6.00 Build 0)  -->
<svg version="1.1" xmlns="http://www.w3.org/2000/svg" xmlns:xlink="http://www.w3.org/1999/xlink" x="0px" y="0px"
	 viewBox="0 0 1200 1200" style="enable-background:new 0 0 1200 1200;" xml:space="preserve">
<style type="text/css">
	.st0{display:none;}
	.st1{display:inline;fill:#D6D6D6;}
	.st2{fill:url(#SVGID_1_);}
	.st3{fill:url(#SVGID_00000029015453204640064740000017691081031401603226_);}
	.st4{fill:url(#SVGID_00000114787954171170887530000003000503244108891013_);}
	.st5{display:none;opacity:0.15;fill:url(#SVGID_00000026842855223964216750000011294639349299522711_);}
</style>
<g id="Background" class="st0">
	<rect class="st1" width="1200" height="1200"/>
</g>
<g id="Graphic_Element">
	<g>
		<g>
			
				<linearGradient id="SVGID_1_" gradientUnits="userSpaceOnUse" x1="-59.9932" y1="469.8714" x2="997.0402" y2="469.8714" gradientTransform="matrix(-1 0 0 1 1320.9556 0)">
				<stop  offset="0" style="stop-color:#FFFFFF;stop-opacity:0.2"/>
				<stop  offset="0.0881" style="stop-color:#FFFFFF;stop-opacity:0.5"/>
				<stop  offset="1" style="stop-color:#FFFFFF"/>
			</linearGradient>
			<path class="st2" d="M61.97,100.77v38.97h119.7c29.03,0,54.06,19.71,60.86,47.94l25.36,105.29h-0.87l84.4,346.76l0.52,2.17
				l0.01,0l29.09,119.51c11.11,45.66,51.69,77.55,98.69,77.55h454.23c47,0,87.58-31.89,98.69-77.55l83.44-342.84
				c7.42-30.49,0.56-62.12-18.83-86.78c-19.38-24.67-48.49-38.81-79.86-38.81H307.97l-27.56-114.41
				c-11.04-45.8-51.64-77.79-98.75-77.79H61.97z M389.83,632.78L389.83,632.78l-11.4-47.32h499.75v-38.97H369.04l-51.68-214.54
				h700.02c19.33,0,37.28,8.72,49.23,23.92c11.94,15.2,16.18,34.7,11.61,53.49L994.77,752.2c-6.85,28.14-31.86,47.8-60.83,47.8
				H479.71c-28.96,0-53.98-19.65-60.83-47.8L389.83,632.78z"/>
			
				<linearGradient id="SVGID_00000031903660657449968960000005694346645321378458_" gradientUnits="userSpaceOnUse" x1="766.5375" y1="996.8549" x2="980.8276" y2="996.8549" gradientTransform="matrix(-1 0 0 1 1320.9556 0)">
				<stop  offset="0" style="stop-color:#FFFFFF;stop-opacity:0.2"/>
				<stop  offset="0.0881" style="stop-color:#FFFFFF;stop-opacity:0.5"/>
				<stop  offset="1" style="stop-color:#FFFFFF"/>
			</linearGradient>
			<path style="fill:url(#SVGID_00000031903660657449968960000005694346645321378458_);" d="M340.13,996.85
				c0,59.08,48.06,107.15,107.14,107.15s107.15-48.07,107.15-107.15c0-59.08-48.06-107.14-107.15-107.14
				S340.13,937.77,340.13,996.85z M379.1,996.85c0-37.59,30.59-68.17,68.17-68.17c37.59,0,68.17,30.58,68.17,68.17
				c0,37.59-30.58,68.17-68.17,68.17C409.69,1065.03,379.1,1034.45,379.1,996.85z"/>
			
				<linearGradient id="SVGID_00000000189182705605096100000014633880563197335731_" gradientUnits="userSpaceOnUse" x1="247.4215" y1="996.8549" x2="461.7117" y2="996.8549" gradientTransform="matrix(-1 0 0 1 1320.9556 0)">
				<stop  offset="0" style="stop-color:#FFFFFF;stop-opacity:0.2"/>
				<stop  offset="0.0881" style="stop-color:#FFFFFF;stop-opacity:0.5"/>
				<stop  offset="1" style="stop-color:#FFFFFF"/>
			</linearGradient>
			<path style="fill:url(#SVGID_00000000189182705605096100000014633880563197335731_);" d="M859.24,996.85
				c0,59.08,48.06,107.15,107.14,107.15c59.08,0,107.15-48.07,107.15-107.15c0-59.08-48.06-107.14-107.15-107.14
				C907.31,889.71,859.24,937.77,859.24,996.85z M898.22,996.85c0-37.59,30.59-68.17,68.17-68.17c37.59,0,68.17,30.58,68.17,68.17
				c0,37.59-30.58,68.17-68.17,68.17C928.8,1065.03,898.22,1034.45,898.22,996.85z"/>
		</g>
	</g>
	
		<radialGradient id="SVGID_00000132803828257213983400000014895263333995025068_" cx="-10193.8965" cy="14873.3477" r="312.5683" gradientTransform="matrix(-0.8771 0.1355 -0.463 -0.2568 -1454.7046 6224.9902)" gradientUnits="userSpaceOnUse">
		<stop  offset="0.0713" style="stop-color:#666666;stop-opacity:0.98"/>
		<stop  offset="0.8041" style="stop-color:#666666;stop-opacity:0"/>
	</radialGradient>
	
		<ellipse style="display:none;opacity:0.15;fill:url(#SVGID_00000132803828257213983400000014895263333995025068_);" cx="600" cy="1024.24" rx="310" ry="90.76"/>
</g>
</svg>
