<svg width="37" height="36" viewBox="0 0 37 36" fill="none" xmlns="http://www.w3.org/2000/svg">
<path d="M18.2849 0.000109335C28.082 -0.034108 36.134 7.96754 36.157 17.7738C36.1801 27.606 28.3558 35.566 18.5609 35.7007C8.63354 35.8398 0.53176 27.9311 0.455138 18.0267C0.378517 8.04489 8.33822 0.0343267 18.2849 0.000109335ZM19.0675 22.8431C20.6817 24.0645 22.2826 25.2361 23.8344 26.4702C24.5292 27.0221 25.3698 26.8228 25.5795 25.8498C26.6857 20.7172 27.8216 15.5935 28.9561 10.4684C29.0684 9.96182 28.9977 9.52814 28.5975 9.1882C28.1973 8.84826 27.748 8.87058 27.2719 9.05357C20.9041 11.4954 14.5351 13.9332 8.16489 16.3671C7.83534 16.4928 7.59656 16.6855 7.59432 17.0597C7.59432 17.4539 7.84279 17.6548 8.18944 17.7701C9.67724 18.2714 11.1695 18.7713 12.6528 19.2897C12.7586 19.3334 12.8738 19.3496 12.9875 19.3365C13.1013 19.3235 13.2098 19.2818 13.303 19.2154C16.9764 16.96 20.6537 14.7106 24.335 12.4671C24.4358 12.3952 24.5429 12.3325 24.6549 12.2797C24.7226 12.2529 24.8111 12.2797 24.8907 12.2841C24.8743 12.3719 24.8855 12.4798 24.8364 12.5415C24.7297 12.6622 24.6135 12.7741 24.489 12.8762C21.7529 15.3959 19.0181 17.9166 16.2845 20.4383C16.1596 20.5543 16.0301 20.7321 16.016 20.8905C15.8977 22.2607 15.8047 23.6339 15.7058 25.0055C15.6902 25.2287 15.65 25.5166 15.9223 25.5657C16.0956 25.5969 16.3493 25.4831 16.4884 25.3514C17.355 24.5361 18.1971 23.6963 19.0682 22.8431H19.0675Z" fill="white"/>
</svg>
