<?xml version="1.0" encoding="utf-8"?>
<!-- Generator: Adobe Illustrator 27.2.0, SVG Export Plug-In . SVG Version: 6.00 Build 0)  -->
<svg version="1.1" xmlns="http://www.w3.org/2000/svg" xmlns:xlink="http://www.w3.org/1999/xlink" x="0px" y="0px"
	 viewBox="0 0 2200 2200" style="enable-background:new 0 0 2200 2200;" xml:space="preserve">
<style type="text/css">
	.st0{display:none;}
	.st1{display:inline;fill:#FFFFFF;}
	.st2{display:inline;}
	.st3{fill:#87BF56;}
	.st4{display:inline;fill:#87BF56;}
	.st5{fill:#E04C4C;}
	.st6{display:none;fill:#E04C4C;}
	.st7{display:inline;fill:#56A535;}
	.st8{display:inline;fill:#E04C4C;}
	.st9{display:inline;fill:#96323C;}
</style>
<g id="background" class="st0">
	<rect class="st1" width="2200" height="2200"/>
</g>
<g id="Objects">
	<g class="st0">
		<g class="st2">
			<polygon class="st3" points="597.6,1722.22 476.31,1600.93 522.09,1555.15 591.15,1624.21 772.63,1387.42 824.01,1426.81 			"/>
		</g>
		<path class="st4" d="M650.16,1931.57c-50.85,0-100.19-9.97-146.66-29.62c-44.87-18.98-85.15-46.14-119.74-80.73
			s-61.75-74.88-80.73-119.74c-19.66-46.47-29.62-95.81-29.62-146.66s9.97-100.19,29.62-146.66
			c18.98-44.87,46.14-85.15,80.73-119.74s74.88-61.75,119.74-80.73c46.47-19.66,95.81-29.62,146.66-29.62s100.19,9.97,146.66,29.62
			c44.87,18.98,85.15,46.14,119.74,80.73s61.75,74.88,80.73,119.74c19.66,46.47,29.62,95.81,29.62,146.66s-9.97,100.19-29.62,146.66
			c-18.98,44.87-46.14,85.15-80.73,119.74s-74.88,61.75-119.74,80.73C750.35,1921.61,701.01,1931.57,650.16,1931.57z
			 M650.16,1248.07c-81.94,0-158.97,31.91-216.9,89.84c-57.94,57.94-89.85,134.97-89.85,216.91s31.91,158.97,89.85,216.91
			c57.94,57.94,134.97,89.84,216.9,89.84s158.97-31.91,216.91-89.84s89.84-134.97,89.84-216.91s-31.91-158.97-89.84-216.91
			S732.1,1248.07,650.16,1248.07z"/>
	</g>
	<g>
		<polygon class="st5" points="1411.07,1288.03 1698.1,1575.08 1570.09,1703.09 1283.06,1416.04 996.01,1703.09 868,1575.06 
			1155.03,1288.03 868,1000.98 996.01,872.97 1283.04,1160.02 1570.09,872.97 1698.1,1001 		"/>
		<path class="st6" d="M1549.84,1931.57c-50.85,0-100.19-9.97-146.66-29.62c-44.87-18.98-85.16-46.14-119.74-80.73
			c-34.59-34.59-61.75-74.88-80.73-119.74c-19.66-46.47-29.62-95.81-29.62-146.66s9.97-100.19,29.62-146.66
			c18.98-44.87,46.14-85.15,80.73-119.74s74.88-61.75,119.74-80.73c46.47-19.66,95.81-29.62,146.66-29.62s100.19,9.97,146.66,29.62
			c44.87,18.98,85.15,46.14,119.74,80.73s61.75,74.88,80.73,119.74c19.66,46.47,29.62,95.81,29.62,146.66s-9.97,100.19-29.62,146.66
			c-18.98,44.87-46.14,85.16-80.73,119.74c-34.59,34.59-74.88,61.75-119.74,80.73C1650.03,1921.61,1600.68,1931.57,1549.84,1931.57z
			 M1549.84,1248.07c-81.94,0-158.97,31.91-216.91,89.84s-89.84,134.97-89.84,216.91s31.91,158.97,89.84,216.9
			s134.97,89.84,216.91,89.84s158.97-31.91,216.91-89.84s89.84-134.97,89.84-216.9s-31.91-158.97-89.84-216.91
			S1631.77,1248.07,1549.84,1248.07z"/>
	</g>
	<g class="st0">
		<circle class="st4" cx="650.16" cy="645.18" r="338.69"/>
		<polygon class="st1" points="597.6,812.58 476.31,691.29 522.09,645.51 591.15,714.56 772.63,477.78 824.01,517.16 		"/>
		<path class="st7" d="M650.16,1021.93c-50.85,0-100.19-9.97-146.66-29.62c-44.87-18.98-85.15-46.14-119.74-80.73
			s-61.75-74.88-80.73-119.74c-19.66-46.47-29.62-95.81-29.62-146.66s9.97-100.19,29.62-146.66
			c18.98-44.87,46.14-85.15,80.73-119.74s74.88-61.75,119.74-80.73c46.47-19.66,95.81-29.62,146.66-29.62s100.19,9.97,146.66,29.62
			c44.87,18.98,85.15,46.14,119.74,80.73s61.75,74.88,80.73,119.74c19.66,46.47,29.62,95.81,29.62,146.66s-9.97,100.19-29.62,146.66
			c-18.98,44.87-46.14,85.15-80.73,119.74s-74.88,61.75-119.74,80.73C750.35,1011.96,701.01,1021.93,650.16,1021.93z M650.16,338.43
			c-81.94,0-158.97,31.91-216.9,89.84c-57.94,57.94-89.85,134.97-89.85,216.91s31.91,158.97,89.85,216.91
			c57.94,57.94,134.97,89.84,216.9,89.84s158.97-31.91,216.91-89.84s89.84-134.97,89.84-216.91S925,486.21,867.07,428.27
			S732.1,338.43,650.16,338.43z"/>
	</g>
	<g class="st0">
		<circle class="st8" cx="1549.84" cy="645.18" r="338.69"/>
		<polygon class="st1" points="1595.57,645.18 1698.1,747.72 1652.37,793.45 1549.84,690.91 1447.3,793.45 1401.57,747.71 
			1504.11,645.18 1401.57,542.64 1447.3,496.91 1549.83,599.45 1652.37,496.91 1698.1,542.65 		"/>
		<path class="st9" d="M1549.84,1021.93c-50.85,0-100.19-9.97-146.66-29.62c-44.87-18.98-85.16-46.14-119.74-80.73
			c-34.59-34.59-61.75-74.88-80.73-119.74c-19.66-46.47-29.62-95.81-29.62-146.66s9.97-100.19,29.62-146.66
			c18.98-44.87,46.14-85.15,80.73-119.74s74.88-61.75,119.74-80.73c46.47-19.66,95.81-29.62,146.66-29.62s100.19,9.97,146.66,29.62
			c44.87,18.98,85.15,46.14,119.74,80.73s61.75,74.88,80.73,119.74c19.66,46.47,29.62,95.81,29.62,146.66s-9.97,100.19-29.62,146.66
			c-18.98,44.87-46.14,85.16-80.73,119.74c-34.59,34.59-74.88,61.75-119.74,80.73C1650.03,1011.96,1600.68,1021.93,1549.84,1021.93z
			 M1549.84,338.43c-81.94,0-158.97,31.91-216.91,89.84s-89.84,134.97-89.84,216.91s31.91,158.97,89.84,216.9
			s134.97,89.84,216.91,89.84s158.97-31.91,216.91-89.84s89.84-134.97,89.84-216.9s-31.91-158.97-89.84-216.91
			S1631.77,338.43,1549.84,338.43z"/>
	</g>
</g>
</svg>
